<svg xmlns="http://www.w3.org/2000/svg" width="960" height="540" viewBox="0 0 960 540" role="img" aria-labelledby="title desc">
  <title id="title">Skylattice app preview snapshot</title>
  <desc id="desc">Representative public-safe illustration of the Skylattice hosted app preview dashboard with paired devices, recent commands, and approval visibility.</desc>
  <defs>
    <pattern id="dots" width="18" height="18" patternUnits="userSpaceOnUse">
      <circle cx="4" cy="4" r="2" fill="#d8d3ff"/>
    </pattern>
  </defs>

  <rect width="960" height="540" rx="28" fill="#fffdf5"/>
  <rect x="0" y="0" width="960" height="540" rx="28" fill="url(#dots)" opacity="0.55"/>
  <circle cx="168" cy="130" r="98" fill="#fbbf24" opacity="0.28"/>
  <rect x="780" y="54" width="118" height="118" rx="32" fill="#f472b6" opacity="0.22"/>
  <rect x="54" y="36" width="852" height="468" rx="26" fill="#ffffff" stroke="#1e293b" stroke-width="2"/>
  <rect x="62" y="44" width="852" height="468" rx="26" fill="none" stroke="#e2e8f0" stroke-width="8"/>

  <rect x="84" y="68" width="792" height="58" rx="20" fill="#ffffff" stroke="#1e293b" stroke-width="2"/>
  <rect x="100" y="82" width="44" height="44" rx="14" fill="#f472b6" stroke="#1e293b" stroke-width="2"/>
  <path d="M114 104c0-8 6-14 14-14s14 6 14 14-6 14-14 14-14-6-14-14z" fill="#fffdf5"/>
  <path d="M122 104l7 7 11-15" fill="none" stroke="#1e293b" stroke-linecap="round" stroke-linejoin="round" stroke-width="3"/>
  <text x="158" y="103" fill="#1e293b" font-family="Outfit, 'Segoe UI', sans-serif" font-size="24" font-weight="800">Skylattice App</text>

  <rect x="596" y="84" width="88" height="28" rx="14" fill="#fbbf24" stroke="#1e293b" stroke-width="2"/>
  <text x="640" y="102" fill="#1e293b" font-family="'Plus Jakarta Sans', 'Segoe UI', sans-serif" font-size="12" font-weight="800" text-anchor="middle">PREVIEW</text>
  <rect x="696" y="84" width="88" height="28" rx="14" fill="#34d399" stroke="#1e293b" stroke-width="2"/>
  <text x="740" y="102" fill="#1e293b" font-family="'Plus Jakarta Sans', 'Segoe UI', sans-serif" font-size="12" font-weight="800" text-anchor="middle">2 DEVICES</text>
  <rect x="796" y="84" width="58" height="28" rx="14" fill="#8b5cf6" stroke="#1e293b" stroke-width="2"/>
  <text x="825" y="102" fill="#ffffff" font-family="'Plus Jakarta Sans', 'Segoe UI', sans-serif" font-size="12" font-weight="800" text-anchor="middle">DOCS</text>

  <text x="92" y="168" fill="#64748b" font-family="'Plus Jakarta Sans', 'Segoe UI', sans-serif" font-size="12" font-weight="800" letter-spacing="2">HOSTED CONTROL PLANE OVERVIEW</text>
  <text x="92" y="206" fill="#1e293b" font-family="Outfit, 'Segoe UI', sans-serif" font-size="34" font-weight="800">Read-only preview data for a local-first app surface.</text>
  <text x="92" y="236" fill="#475569" font-family="'Plus Jakarta Sans', 'Segoe UI', sans-serif" font-size="16">Representative command, device, and approval cards let evaluators inspect the product shape before GitHub sign-in or live pairing.</text>

  <rect x="92" y="268" width="214" height="96" rx="22" fill="#ffffff" stroke="#1e293b" stroke-width="2"/>
  <rect x="100" y="276" width="214" height="96" rx="22" fill="none" stroke="#e2e8f0" stroke-width="8"/>
  <text x="110" y="298" fill="#64748b" font-family="'Plus Jakarta Sans', 'Segoe UI', sans-serif" font-size="11" font-weight="800" letter-spacing="1.5">PAIRED DEVICES</text>
  <text x="110" y="336" fill="#1e293b" font-family="Outfit, 'Segoe UI', sans-serif" font-size="38" font-weight="800">2</text>
  <text x="110" y="357" fill="#475569" font-family="'Plus Jakarta Sans', 'Segoe UI', sans-serif" font-size="14">Primary workstation + lab laptop</text>

  <rect x="328" y="268" width="214" height="96" rx="22" fill="#d9fff1" stroke="#1e293b" stroke-width="2"/>
  <rect x="336" y="276" width="214" height="96" rx="22" fill="none" stroke="#9ae6c8" stroke-width="8"/>
  <text x="346" y="298" fill="#64748b" font-family="'Plus Jakarta Sans', 'Segoe UI', sans-serif" font-size="11" font-weight="800" letter-spacing="1.5">RECENT COMMANDS</text>
  <text x="346" y="336" fill="#1e293b" font-family="Outfit, 'Segoe UI', sans-serif" font-size="38" font-weight="800">6</text>
  <text x="346" y="357" fill="#475569" font-family="'Plus Jakarta Sans', 'Segoe UI', sans-serif" font-size="14">task, radar, and memory preview records</text>

  <rect x="564" y="268" width="214" height="96" rx="22" fill="#ffe1f0" stroke="#1e293b" stroke-width="2"/>
  <rect x="572" y="276" width="214" height="96" rx="22" fill="none" stroke="#f9a8d4" stroke-width="8"/>
  <text x="582" y="298" fill="#64748b" font-family="'Plus Jakarta Sans', 'Segoe UI', sans-serif" font-size="11" font-weight="800" letter-spacing="1.5">PENDING APPROVALS</text>
  <text x="582" y="336" fill="#1e293b" font-family="Outfit, 'Segoe UI', sans-serif" font-size="38" font-weight="800">1</text>
  <text x="582" y="357" fill="#475569" font-family="'Plus Jakarta Sans', 'Segoe UI', sans-serif" font-size="14">external-write still blocked locally</text>

  <rect x="92" y="388" width="378" height="90" rx="24" fill="#ffffff" stroke="#1e293b" stroke-width="2"/>
  <rect x="100" y="396" width="378" height="90" rx="24" fill="none" stroke="#e2e8f0" stroke-width="8"/>
  <text x="112" y="416" fill="#64748b" font-family="'Plus Jakarta Sans', 'Segoe UI', sans-serif" font-size="11" font-weight="800" letter-spacing="1.5">LATEST COMMAND LOG</text>
  <rect x="112" y="426" width="94" height="24" rx="12" fill="#34d399" stroke="#1e293b" stroke-width="2"/>
  <text x="159" y="442" fill="#1e293b" font-family="'Plus Jakarta Sans', 'Segoe UI', sans-serif" font-size="11" font-weight="800" text-anchor="middle">SUCCEEDED</text>
  <text x="220" y="442" fill="#1e293b" font-family="Outfit, 'Segoe UI', sans-serif" font-size="18" font-weight="800">task.run</text>
  <text x="112" y="466" fill="#475569" font-family="'Plus Jakarta Sans', 'Segoe UI', sans-serif" font-size="14">Run run-demo-1 completed on codex/demo-web-proof.</text>

  <rect x="496" y="388" width="282" height="90" rx="24" fill="#ffffff" stroke="#1e293b" stroke-width="2"/>
  <rect x="504" y="396" width="282" height="90" rx="24" fill="none" stroke="#e2e8f0" stroke-width="8"/>
  <text x="516" y="416" fill="#64748b" font-family="'Plus Jakarta Sans', 'Segoe UI', sans-serif" font-size="11" font-weight="800" letter-spacing="1.5">LOCAL AGENT READINESS</text>
  <rect x="516" y="426" width="68" height="24" rx="12" fill="#34d399" stroke="#1e293b" stroke-width="2"/>
  <text x="550" y="442" fill="#1e293b" font-family="'Plus Jakarta Sans', 'Segoe UI', sans-serif" font-size="11" font-weight="800" text-anchor="middle">ONLINE</text>
  <text x="598" y="442" fill="#1e293b" font-family="Outfit, 'Segoe UI', sans-serif" font-size="18" font-weight="800">Primary workstation</text>
  <text x="516" y="466" fill="#475569" font-family="'Plus Jakarta Sans', 'Segoe UI', sans-serif" font-size="14">GitHub bridge ready from gh; OpenAI and GitLab still blocked.</text>

  <path d="M814 235c18 0 28 10 28 27 0 12-7 20-18 26 15 5 24 16 24 31 0 20-16 35-39 35-22 0-39-15-39-36 0-6 1-11 4-16" fill="none" stroke="#1e293b" stroke-linecap="round" stroke-linejoin="round" stroke-width="5"/>
  <circle cx="804" cy="222" r="18" fill="#8b5cf6" stroke="#1e293b" stroke-width="2"/>
  <text x="804" y="228" fill="#ffffff" font-family="Outfit, 'Segoe UI', sans-serif" font-size="18" font-weight="800" text-anchor="middle">?</text>

  <text x="92" y="516" fill="#51657f" font-family="'Plus Jakarta Sans', 'Segoe UI', sans-serif" font-size="15">Representative preview snapshot only. Real execution, memory, approvals, and runtime truth still stay with the paired local Skylattice agent.</text>
</svg>
